<?xml version="1.0" encoding="UTF-8"?>
<svg xmlns="http://www.w3.org/2000/svg" viewBox="0 0 1024 1024" width="1024" height="1024">
<path d="M0.25 0.25C341.42 0.25 682.58 0.25 1023.75 0.25C1023.75 341.42 1023.75 682.58 1023.75 1023.75C682.58 1023.75 341.42 1023.75 0.25 1023.75C0.25 682.58 0.25 341.42 0.25 0.25ZM471.8 171.41C449.97 175.31 431.51 191.93 426.29 213.69C424.17 222.52 424.33 231.48 424.39 240.5C424.46 249.61 421.84 262.89 427.96 270.55C436.08 280.72 451.98 277.59 463.5 278.31C494.48 280.24 525.5 281.56 556.5 283.23C568.19 283.86 586.03 288.11 594.51 278C600.7 270.62 598.46 250.17 598.39 240.5C598.31 227.6 598.5 214.68 592.72 202.78C584.57 185.98 568.11 173.52 549.5 171.11C537.12 169.5 523.96 170.72 511.5 170.72C498.59 170.71 484.53 169.14 471.8 171.41ZM373.75 295.41C355.52 298.02 339.76 311.44 335.17 329.56C332.41 340.44 333.56 352.36 333.57 363.5C333.57 382.72 333.94 400.13 350.14 413.39C369.35 429.11 394.75 423.01 417.5 422.01C467.52 419.82 517.47 415.9 567.5 413.94C577.31 413.56 587.77 413.67 597.41 411.77C613.39 408.62 627.21 396.53 632.76 381.3C635.32 374.27 635.82 366.92 635.83 359.5C635.86 336.76 626.41 316.92 604.14 308.4C594.77 304.82 584.38 305.33 574.5 304.91C560.18 304.31 545.82 303.53 531.51 302.64C499.19 300.62 466.82 299.61 434.5 297.7C421.84 296.96 409.17 296.44 396.5 295.77C388.99 295.37 381.25 294.34 373.75 295.41ZM699.78 427.47C636.35 430.95 572.93 434.45 509.5 437.82C485.84 439.07 462.13 439.98 438.5 441.69C428.65 442.41 418.33 441.62 408.75 444.32C377.77 453.08 368.17 488.91 375.41 517.18C379.51 533.18 392.54 546.66 408.64 550.76C420.65 553.82 434.18 552.82 446.5 553.06C511.51 554.35 576.5 556.66 641.5 558.09C656.83 558.43 672.17 558.83 687.5 559.21C700.08 559.53 712.13 560.42 722.55 552.03C737.21 540.23 735.3 522.49 735.29 505.5C735.29 495.83 735.3 486.17 735.3 476.5C735.3 469.59 735.89 462.37 734.88 455.51C733.05 443.12 723.38 432.49 711.59 428.8C707.77 427.6 703.77 427.25 699.78 427.47ZM331.66 571.27C318.89 573.87 308.38 584.76 306.1 597.53C304.88 604.33 305.54 611.62 305.55 618.5C305.55 627.17 305.57 635.83 305.58 644.5C305.6 664.44 302.4 685.45 322.58 696.96C332.4 702.56 343.62 701.26 354.5 701.26C373.83 701.26 393.17 701.27 412.5 701.27C486.5 701.3 560.5 701.23 634.5 701.25C648.07 701.25 664.31 702.99 677.46 699.88C697.04 695.24 711.66 678.69 715.66 659.27C717.01 652.71 716.91 646.16 716.9 639.5C716.83 614.6 709.11 593.16 684.23 583.31C670.96 578.05 655.54 579.33 641.5 579.06C618.5 578.62 595.5 577.55 572.5 577.13C518.84 576.14 465.14 574.49 411.5 572.74C393.84 572.17 376.17 571.44 358.5 571.08C349.81 570.9 340.23 569.53 331.66 571.27ZM282.62 722.3C270.25 724.26 259.13 734.45 256.28 746.68C254.48 754.4 255.2 762.63 255.23 770.5C255.25 779.17 255.23 787.83 255.23 796.5C255.22 806.85 253.96 818.17 256.29 828.32C258.52 838.05 265.88 846.57 274.93 850.55C286.12 855.48 300.55 853.22 312.5 853.21C337.83 853.2 363.17 853.19 388.5 853.2C477.83 853.25 567.17 853.26 656.5 853.21C675.5 853.2 694.5 853.21 713.5 853.2C722.91 853.2 733.15 854.35 742.45 852.78C754.38 850.76 765.29 840.28 767.81 828.44C769.86 818.8 768.8 808.3 768.79 798.5C768.78 788.17 768.77 777.83 768.79 767.5C768.82 751.79 769.1 738.49 755.3 728.19C743.84 719.63 728.95 721.93 715.5 721.93C687.5 721.92 659.5 721.88 631.5 721.9C553.83 721.96 476.17 721.89 398.5 721.92C373.17 721.93 347.83 721.9 322.5 721.91C310.73 721.92 293.78 720.52 282.62 722.3Z" fill="#f3eddf" fill-rule="evenodd" stroke="#f3eddf" stroke-width="0.25" stroke-linejoin="round"/>
<path d="M373.75 295.41C381.25 294.34 388.99 295.37 396.5 295.77C409.17 296.44 421.84 296.96 434.5 297.7C466.82 299.61 499.19 300.62 531.51 302.64C545.82 303.53 560.18 304.31 574.5 304.91C584.38 305.33 594.77 304.82 604.14 308.4C626.41 316.92 635.86 336.76 635.83 359.5C635.82 366.92 635.32 374.27 632.76 381.3C627.21 396.53 613.39 408.62 597.41 411.77C587.77 413.67 577.31 413.56 567.5 413.94C517.47 415.9 467.52 419.82 417.5 422.01C394.75 423.01 369.35 429.11 350.14 413.39C333.94 400.13 333.57 382.72 333.57 363.5C333.56 352.36 332.41 340.44 335.17 329.56C339.76 311.44 355.52 298.02 373.75 295.41ZM699.78 427.47C703.77 427.25 707.77 427.6 711.59 428.8C723.38 432.49 733.05 443.12 734.88 455.51C735.89 462.37 735.3 469.59 735.3 476.5C735.3 486.17 735.29 495.83 735.29 505.5C735.3 522.49 737.21 540.23 722.55 552.03C712.13 560.42 700.08 559.53 687.5 559.21C672.17 558.83 656.83 558.43 641.5 558.09C576.5 556.66 511.51 554.35 446.5 553.06C434.18 552.82 420.65 553.82 408.64 550.76C392.54 546.66 379.51 533.18 375.41 517.18C368.17 488.91 377.77 453.08 408.75 444.32C418.33 441.62 428.65 442.41 438.5 441.69C462.13 439.98 485.84 439.07 509.5 437.82C572.93 434.45 636.35 430.95 699.78 427.47ZM331.66 571.27C340.23 569.53 349.81 570.9 358.5 571.08C376.17 571.44 393.84 572.17 411.5 572.74C465.14 574.49 518.84 576.14 572.5 577.13C595.5 577.55 618.5 578.62 641.5 579.06C655.54 579.33 670.96 578.05 684.23 583.31C709.11 593.16 716.83 614.6 716.9 639.5C716.91 646.16 717.01 652.71 715.66 659.27C711.66 678.69 697.04 695.24 677.46 699.88C664.31 702.99 648.07 701.25 634.5 701.25C560.5 701.23 486.5 701.3 412.5 701.27C393.17 701.27 373.83 701.26 354.5 701.26C343.62 701.26 332.4 702.56 322.58 696.96C302.4 685.45 305.6 664.44 305.58 644.5C305.57 635.83 305.55 627.17 305.55 618.5C305.54 611.62 304.88 604.33 306.1 597.53C308.38 584.76 318.89 573.87 331.66 571.27ZM282.62 722.3C293.78 720.52 310.73 721.92 322.5 721.91C347.83 721.9 373.17 721.93 398.5 721.92C476.17 721.89 553.83 721.96 631.5 721.9C659.5 721.88 687.5 721.92 715.5 721.93C728.95 721.93 743.84 719.63 755.3 728.19C769.1 738.49 768.82 751.79 768.79 767.5C768.77 777.83 768.78 788.17 768.79 798.5C768.8 808.3 769.86 818.8 767.81 828.44C765.29 840.28 754.38 850.76 742.45 852.78C733.15 854.35 722.91 853.2 713.5 853.2C694.5 853.21 675.5 853.2 656.5 853.21C567.17 853.26 477.83 853.25 388.5 853.2C363.17 853.19 337.83 853.2 312.5 853.21C300.55 853.22 286.12 855.48 274.93 850.55C265.88 846.57 258.52 838.05 256.29 828.32C253.96 818.17 255.22 806.85 255.23 796.5C255.23 787.83 255.25 779.17 255.23 770.5C255.2 762.63 254.48 754.4 256.28 746.68C259.13 734.45 270.25 724.26 282.62 722.3Z" fill="#4a382c" fill-rule="evenodd" stroke="#4a382c" stroke-width="0.25" stroke-linejoin="round"/>
<path d="M471.8 171.41C484.53 169.14 498.59 170.71 511.5 170.72C523.96 170.72 537.12 169.5 549.5 171.11C568.11 173.52 584.57 185.98 592.72 202.78C598.5 214.68 598.31 227.6 598.39 240.5C598.46 250.17 600.7 270.62 594.51 278C586.03 288.11 568.19 283.86 556.5 283.23C525.5 281.56 494.48 280.24 463.5 278.31C451.98 277.59 436.08 280.72 427.96 270.55C421.84 262.89 424.46 249.61 424.39 240.5C424.33 231.48 424.17 222.52 426.29 213.69C431.51 191.93 449.97 175.31 471.8 171.41Z" fill="#fd8479" fill-rule="evenodd" stroke="#fd8479" stroke-width="0.25" stroke-linejoin="round"/>
</svg>
