<svg id="svg" version="1.1" width="512" height="512" viewBox="91 0 218 218" xmlns="http://www.w3.org/2000/svg" xmlns:xlink="http://www.w3.org/1999/xlink"><defs><clipPath id="pandaClip" clipPathUnits="userSpaceOnUse"><path d="M170.167 49.181 C 175.048 50.184,179.549 54.149,180.842 58.583 C 181.202 59.820,181.300 59.881,182.191 59.427 C 182.975 59.027,186.784 57.753,189.755 56.896 C 191.074 56.516,192.398 56.115,192.698 56.005 C 193.319 55.775,197.696 54.513,200.749 53.683 L 202.806 53.124 205.000 53.719 C 206.206 54.045,207.684 54.441,208.283 54.599 C 208.883 54.756,210.256 55.150,211.335 55.475 C 212.414 55.800,213.837 56.208,214.496 56.383 C 216.763 56.983,220.711 58.266,222.534 58.996 C 223.538 59.398,224.386 59.728,224.418 59.728 C 224.450 59.728,224.542 59.458,224.622 59.128 C 226.174 52.751,233.556 48.021,240.268 49.100 C 257.017 51.794,261.699 74.238,247.055 81.635 L 245.329 82.507 246.558 85.559 C 247.235 87.237,248.593 90.866,249.577 93.624 C 250.561 96.381,251.497 98.981,251.656 99.401 C 251.816 99.820,252.407 101.488,252.971 103.106 C 253.535 104.725,254.380 107.013,254.851 108.192 C 255.780 110.522,255.780 110.476,254.866 112.807 C 254.163 114.599,252.511 118.200,250.626 122.053 C 248.995 125.383,248.748 124.128,252.513 131.643 C 254.688 135.985,255.687 138.201,255.608 138.509 C 255.502 138.924,251.813 143.220,250.443 144.523 C 248.079 146.773,247.190 147.550,244.684 149.555 C 233.843 158.233,220.280 165.048,205.668 169.160 C 203.612 169.738,201.902 169.817,200.545 169.396 C 184.721 164.489,173.211 158.858,162.180 150.626 C 158.196 147.653,151.988 141.728,150.290 139.278 L 149.685 138.404 153.077 131.644 L 156.468 124.883 154.910 121.786 C 150.054 112.136,149.628 110.872,150.508 108.754 C 151.148 107.218,152.225 104.293,153.994 99.292 C 156.450 92.345,158.347 87.208,159.289 84.949 C 159.829 83.655,160.234 82.567,160.190 82.531 C 160.145 82.495,159.302 82.040,158.315 81.520 C 152.493 78.451,149.697 73.853,149.702 67.357 C 149.710 56.562,160.305 47.152,170.167 49.181"/></clipPath></defs><g id="svgg" clip-path="url(#pandaClip)"><path id="path0" d="M0.000 108.992 L 0.000 217.984 200.000 217.984 L 400.000 217.984 400.000 108.992 L 400.000 0.000 200.000 0.000 L 0.000 0.000 0.000 108.992 M170.167 49.181 C 175.048 50.184,179.549 54.149,180.842 58.583 C 181.202 59.820,181.300 59.881,182.191 59.427 C 182.975 59.027,186.784 57.753,189.755 56.896 C 191.074 56.516,192.398 56.115,192.698 56.005 C 193.319 55.775,197.696 54.513,200.749 53.683 L 202.806 53.124 205.000 53.719 C 206.206 54.045,207.684 54.441,208.283 54.599 C 208.883 54.756,210.256 55.150,211.335 55.475 C 212.414 55.800,213.837 56.208,214.496 56.383 C 216.763 56.983,220.711 58.266,222.534 58.996 C 223.538 59.398,224.386 59.728,224.418 59.728 C 224.450 59.728,224.542 59.458,224.622 59.128 C 226.174 52.751,233.556 48.021,240.268 49.100 C 257.017 51.794,261.699 74.238,247.055 81.635 L 245.329 82.507 246.558 85.559 C 247.235 87.237,248.593 90.866,249.577 93.624 C 250.561 96.381,251.497 98.981,251.656 99.401 C 251.816 99.820,252.407 101.488,252.971 103.106 C 253.535 104.725,254.380 107.013,254.851 108.192 C 255.780 110.522,255.780 110.476,254.866 112.807 C 254.163 114.599,252.511 118.200,250.626 122.053 C 248.995 125.383,248.748 124.128,252.513 131.643 C 254.688 135.985,255.687 138.201,255.608 138.509 C 255.502 138.924,251.813 143.220,250.443 144.523 C 248.079 146.773,247.190 147.550,244.684 149.555 C 233.843 158.233,220.280 165.048,205.668 169.160 C 203.612 169.738,201.902 169.817,200.545 169.396 C 184.721 164.489,173.211 158.858,162.180 150.626 C 158.196 147.653,151.988 141.728,150.290 139.278 L 149.685 138.404 153.077 131.644 L 156.468 124.883 154.910 121.786 C 150.054 112.136,149.628 110.872,150.508 108.754 C 151.148 107.218,152.225 104.293,153.994 99.292 C 156.450 92.345,158.347 87.208,159.289 84.949 C 159.829 83.655,160.234 82.567,160.190 82.531 C 160.145 82.495,159.302 82.040,158.315 81.520 C 152.493 78.451,149.697 73.853,149.702 67.357 C 149.710 56.562,160.305 47.152,170.167 49.181 M201.308 58.421 C 200.589 58.636,198.725 59.176,197.166 59.620 C 186.931 62.540,184.830 63.268,181.322 65.115 C 175.411 68.226,169.901 74.153,166.212 81.369 C 164.768 84.193,164.146 85.643,162.727 89.482 C 162.462 90.202,161.945 91.575,161.580 92.534 C 161.215 93.493,160.372 95.798,159.706 97.657 C 159.040 99.515,158.287 101.575,158.033 102.234 C 156.910 105.151,155.204 110.224,155.204 110.648 C 155.204 110.836,155.504 111.693,155.871 112.552 C 156.786 114.696,156.625 114.354,159.575 120.436 C 161.029 123.433,162.707 127.014,163.305 128.392 C 165.138 132.623,165.639 133.541,166.277 133.838 C 166.601 133.990,167.749 134.484,168.828 134.938 C 171.760 136.170,179.881 139.920,186.088 142.909 C 194.310 146.868,201.165 149.065,204.045 148.664 C 207.660 148.162,213.519 145.977,220.767 142.429 C 223.556 141.063,225.876 139.946,225.922 139.946 C 225.968 139.946,227.217 139.370,228.697 138.667 C 232.344 136.936,233.612 136.359,236.294 135.210 C 240.434 133.438,239.904 133.994,242.044 129.172 C 243.083 126.830,244.818 123.122,245.899 120.931 C 247.872 116.932,249.748 112.812,250.245 111.390 C 250.514 110.618,249.730 107.795,248.065 103.542 C 247.807 102.883,247.022 100.725,246.322 98.747 C 245.621 96.768,244.838 94.610,244.582 93.951 C 244.326 93.292,243.530 91.134,242.812 89.155 C 239.021 78.701,233.450 70.953,226.466 66.421 C 223.189 64.295,218.879 62.507,213.733 61.136 C 211.938 60.658,209.937 60.093,207.738 59.441 C 206.719 59.139,205.276 58.735,204.530 58.543 C 203.785 58.351,203.049 58.157,202.895 58.112 C 202.742 58.067,202.027 58.206,201.308 58.421 M187.699 87.763 C 192.794 89.274,195.107 92.760,194.805 98.473 C 194.658 101.265,194.606 101.400,192.940 103.311 C 189.393 107.379,188.209 109.174,185.716 114.259 C 184.638 116.458,183.536 118.698,183.268 119.237 C 182.676 120.424,182.043 120.496,179.401 119.677 C 172.432 117.516,170.030 115.205,168.808 109.481 C 167.812 104.823,167.929 104.475,171.579 101.232 C 174.898 98.282,176.035 96.749,177.462 93.297 C 179.343 88.749,183.481 86.511,187.699 87.763 M222.267 87.716 C 224.945 88.429,226.704 89.918,227.829 92.425 C 229.876 96.986,229.810 96.891,233.580 100.602 C 237.618 104.576,237.555 104.455,237.169 107.557 C 236.421 113.565,234.967 115.802,230.383 117.999 C 226.435 119.891,223.460 120.744,222.918 120.138 C 222.636 119.822,219.074 112.589,219.074 112.332 C 219.074 111.637,215.400 106.417,212.771 103.376 C 210.789 101.083,210.257 98.448,211.035 94.779 C 212.081 89.852,217.498 86.446,222.267 87.716 M210.635 117.631 C 212.982 118.165,213.706 118.959,213.585 120.864 C 213.435 123.223,212.454 124.127,207.569 126.409 C 205.459 127.394,204.596 128.359,204.756 129.553 C 205.188 132.780,210.811 134.628,214.534 132.767 C 217.497 131.287,219.390 133.701,217.007 135.920 C 214.347 138.397,209.618 138.430,204.557 136.007 L 202.792 135.162 201.069 136.020 C 196.265 138.414,191.108 138.278,188.404 135.687 C 187.355 134.682,187.271 134.273,187.902 133.238 C 188.656 132.002,189.199 131.917,190.881 132.770 C 195.015 134.869,200.774 132.757,200.852 129.114 C 200.881 127.773,200.545 127.512,196.157 125.469 C 193.567 124.263,192.047 122.540,192.045 120.807 C 192.041 118.050,194.296 117.184,200.147 117.694 C 202.518 117.900,203.493 117.890,205.450 117.638 C 208.671 117.222,208.834 117.222,210.635 117.631 " stroke="none" fill="#f3f3e7" fill-rule="evenodd"></path><path id="path1" d="M165.559 49.190 C 159.035 50.576,154.685 53.796,151.940 59.270 C 147.416 68.295,150.197 77.277,158.856 81.612 C 159.725 82.047,160.436 82.439,160.436 82.482 C 160.436 82.526,159.910 83.873,159.268 85.477 C 158.148 88.274,156.547 92.642,153.287 101.798 C 152.455 104.136,151.417 106.909,150.982 107.959 C 149.800 110.813,150.044 111.665,154.754 121.137 C 155.721 123.081,156.512 124.777,156.512 124.907 C 156.512 125.036,155.023 128.123,153.202 131.766 L 149.893 138.389 150.532 139.314 C 154.711 145.352,167.393 154.982,178.467 160.526 C 187.268 164.932,199.872 169.632,200.437 168.717 C 200.512 168.597,201.278 167.896,202.139 167.160 C 203.792 165.749,206.204 163.575,210.349 159.759 C 211.731 158.487,215.405 154.931,218.515 151.857 C 221.624 148.782,224.198 146.267,224.235 146.267 C 224.504 146.267,221.316 153.224,219.889 155.749 C 217.991 159.112,215.280 162.998,213.010 165.613 C 212.359 166.362,211.900 166.975,211.989 166.975 C 212.193 166.975,216.987 165.225,218.747 164.509 C 232.920 158.738,246.303 149.531,254.230 140.097 C 255.816 138.209,255.994 138.975,252.226 131.447 L 248.976 124.952 250.326 122.258 C 251.069 120.776,252.008 118.828,252.412 117.929 C 252.817 117.030,253.369 115.804,253.640 115.204 C 255.602 110.865,255.631 110.687,254.742 108.396 C 254.335 107.345,253.406 104.817,252.678 102.779 C 249.406 93.615,247.569 88.607,246.444 85.783 C 244.987 82.123,244.999 82.328,246.212 81.865 C 262.122 75.788,256.455 50.381,238.908 49.122 C 232.900 48.690,226.003 53.547,224.856 59.017 C 224.655 59.975,224.509 60.019,223.289 59.487 C 219.561 57.861,204.706 53.553,202.834 53.555 C 201.615 53.556,199.504 54.106,192.589 56.227 C 191.869 56.448,190.104 56.974,188.665 57.397 C 186.077 58.159,184.760 58.607,182.475 59.506 C 181.168 60.019,181.095 59.988,180.705 58.747 C 178.760 52.563,171.434 47.941,165.559 49.190 M205.341 58.541 C 206.480 58.847,208.000 59.281,208.719 59.505 C 209.439 59.730,211.499 60.319,213.297 60.813 C 226.999 64.582,233.636 69.900,240.106 82.292 C 241.225 84.435,242.911 88.741,245.908 97.112 C 247.092 100.418,247.521 101.580,248.358 103.760 C 248.657 104.540,249.315 106.403,249.821 107.902 L 250.739 110.627 249.925 112.698 C 249.477 113.837,248.275 116.485,247.253 118.583 C 244.014 125.234,242.849 127.715,241.847 130.101 C 240.311 133.759,240.484 133.581,236.918 135.141 C 233.347 136.703,221.346 142.318,217.439 144.255 C 213.692 146.113,207.490 148.256,204.059 148.878 C 201.522 149.338,194.771 147.213,186.921 143.483 C 179.734 140.068,172.947 136.938,169.551 135.471 C 165.372 133.666,165.435 133.714,164.516 131.604 C 164.086 130.617,163.395 129.025,162.980 128.065 C 162.565 127.106,161.346 124.507,160.270 122.289 C 156.853 115.241,156.138 113.715,155.519 112.155 L 154.915 110.631 155.747 108.122 C 156.205 106.742,156.754 105.172,156.968 104.632 C 157.552 103.160,158.826 99.687,160.126 96.022 C 168.634 72.026,174.199 66.080,193.351 60.519 C 203.364 57.612,202.449 57.763,205.341 58.541 M170.136 59.654 C 171.514 60.071,173.295 61.400,174.157 62.653 C 175.033 63.926,175.061 63.847,173.243 65.308 C 169.875 68.015,167.801 70.286,165.230 74.085 C 163.484 76.663,163.426 76.677,161.657 74.908 C 155.300 68.551,161.672 57.088,170.136 59.654 M239.082 59.283 C 246.648 60.718,249.141 72.398,242.656 76.029 L 241.767 76.527 240.162 74.067 C 237.909 70.615,235.531 67.871,232.892 65.677 C 231.646 64.641,230.627 63.753,230.627 63.702 C 230.627 62.881,233.807 60.142,235.313 59.665 C 237.329 59.026,237.590 59.000,239.082 59.283 M183.309 87.927 C 181.499 88.416,178.311 90.889,178.311 91.806 C 178.311 93.633,174.863 98.564,171.567 101.449 C 168.554 104.088,168.399 104.365,168.582 106.803 C 169.143 114.282,172.127 117.538,180.490 119.796 C 182.739 120.403,182.440 120.649,184.346 116.621 C 187.517 109.921,189.056 107.495,192.916 103.121 C 194.562 101.254,194.506 101.437,194.529 97.889 C 194.557 93.782,194.160 92.554,192.165 90.563 C 189.696 88.098,186.358 87.105,183.309 87.927 M218.144 87.853 C 213.653 88.987,211.005 92.615,211.011 97.625 C 211.014 100.936,211.065 101.080,213.016 103.362 C 215.811 106.631,219.510 112.014,219.510 112.813 C 219.510 113.200,223.036 120.138,223.281 120.232 C 223.722 120.401,228.649 118.711,230.707 117.684 C 234.784 115.650,236.086 113.559,236.952 107.662 C 237.397 104.626,237.441 104.711,233.271 100.547 L 229.612 96.894 228.321 93.951 C 226.094 88.874,222.537 86.743,218.144 87.853 M186.847 96.479 C 190.939 98.573,189.058 105.037,184.493 104.566 C 179.559 104.057,179.337 97.706,184.196 96.049 C 184.667 95.888,186.169 96.132,186.847 96.479 M222.925 96.686 C 224.150 97.403,224.959 98.919,224.959 100.494 C 224.959 104.880,218.829 106.124,216.896 102.131 C 215.125 98.473,219.395 94.617,222.925 96.686 M194.877 117.871 C 192.990 118.377,192.262 119.201,192.262 120.828 C 192.262 122.786,193.545 124.026,197.602 125.988 C 200.772 127.521,201.102 127.838,201.056 129.309 C 200.945 132.915,194.925 135.027,190.780 132.916 C 187.928 131.463,186.490 134.335,189.159 136.153 C 192.057 138.126,197.475 137.882,201.605 135.591 L 202.774 134.943 204.548 135.786 C 210.025 138.388,215.845 138.029,217.616 134.980 C 218.630 133.235,217.021 131.807,215.122 132.766 C 211.108 134.792,204.880 133.028,204.681 129.809 C 204.551 127.715,204.875 127.410,209.494 125.288 C 213.629 123.387,214.851 120.056,212.060 118.293 C 211.381 117.864,196.285 117.493,194.877 117.871 " stroke="none" fill="#445159" fill-rule="evenodd"></path><path id="path2" d="M166.340 48.907 C 166.390 48.950,167.264 49.036,168.283 49.098 C 169.303 49.159,169.842 49.136,169.482 49.045 C 168.821 48.878,166.172 48.762,166.340 48.907 M237.552 48.986 C 237.943 49.035,238.532 49.034,238.859 48.984 C 239.187 48.934,238.866 48.895,238.147 48.896 C 237.428 48.897,237.160 48.938,237.552 48.986 M163.161 49.599 C 162.301 49.897,162.300 49.899,163.052 49.772 C 163.941 49.622,164.850 49.290,164.360 49.295 C 164.180 49.296,163.640 49.434,163.161 49.599 M171.219 49.600 C 171.814 49.763,172.338 49.860,172.383 49.815 C 172.492 49.706,170.882 49.262,170.463 49.285 C 170.283 49.295,170.623 49.437,171.219 49.600 M242.039 49.620 C 242.622 49.799,243.146 49.897,243.204 49.838 C 243.329 49.714,241.787 49.260,241.308 49.281 C 241.128 49.288,241.457 49.441,242.039 49.620 M233.351 49.801 C 232.510 50.187,232.901 50.193,233.896 49.809 C 234.316 49.648,234.512 49.512,234.332 49.509 C 234.153 49.505,233.711 49.637,233.351 49.801 M160.654 50.463 C 160.354 50.635,160.207 50.775,160.327 50.775 C 160.447 50.775,160.790 50.635,161.090 50.463 C 161.390 50.292,161.537 50.152,161.417 50.152 C 161.297 50.152,160.954 50.292,160.654 50.463 M173.097 50.218 C 173.321 50.418,174.605 51.008,174.605 50.910 C 174.605 50.785,173.396 50.136,173.163 50.136 C 173.077 50.136,173.047 50.173,173.097 50.218 M244.596 50.425 C 244.929 50.684,247.193 51.863,247.193 51.777 C 247.193 51.635,244.959 50.359,244.705 50.356 C 244.595 50.355,244.546 50.386,244.596 50.425 M158.184 51.884 C 156.600 52.943,153.666 55.829,153.224 56.763 C 153.105 57.015,153.281 56.877,153.615 56.458 C 155.028 54.685,156.717 53.083,158.252 52.059 C 160.021 50.878,160.138 50.790,159.946 50.790 C 159.876 50.790,159.083 51.282,158.184 51.884 M175.477 51.588 C 176.442 52.358,178.029 53.941,178.827 54.932 L 179.442 55.695 178.843 54.823 C 177.981 53.567,176.878 52.451,175.722 51.665 C 174.900 51.107,174.855 51.093,175.477 51.588 M230.039 51.569 L 229.428 52.130 230.136 51.637 C 230.526 51.366,230.845 51.114,230.845 51.076 C 230.845 50.904,230.604 51.052,230.039 51.569 M248.174 52.569 C 248.654 52.968,249.586 53.782,250.245 54.378 L 251.444 55.462 250.375 54.338 C 249.787 53.719,248.855 52.905,248.304 52.529 L 247.302 51.844 248.174 52.569 M228.199 53.134 C 226.950 54.433,225.950 55.777,226.112 55.939 C 226.179 56.007,226.388 55.765,226.576 55.403 C 226.764 55.040,227.468 54.148,228.141 53.420 C 229.589 51.857,229.631 51.642,228.199 53.134 M201.806 53.367 C 201.601 53.448,202.063 53.515,202.834 53.515 C 203.604 53.515,204.066 53.448,203.861 53.367 C 203.656 53.285,203.193 53.219,202.834 53.219 C 202.474 53.219,202.012 53.285,201.806 53.367 M199.050 54.092 C 198.647 54.208,198.360 54.345,198.411 54.397 C 198.463 54.448,198.940 54.354,199.471 54.188 C 200.555 53.848,200.188 53.764,199.050 54.092 M205.668 54.026 C 206.342 54.315,207.472 54.538,207.084 54.306 C 206.905 54.198,206.414 54.049,205.995 53.975 C 205.480 53.884,205.373 53.901,205.668 54.026 M196.294 54.932 C 196.019 55.050,195.979 55.119,196.185 55.119 C 196.365 55.119,196.708 55.035,196.948 54.932 C 197.223 54.814,197.263 54.745,197.057 54.745 C 196.877 54.745,196.534 54.829,196.294 54.932 M209.264 55.052 C 209.804 55.222,210.343 55.355,210.463 55.348 C 210.845 55.325,209.174 54.747,208.719 54.745 C 208.480 54.744,208.725 54.882,209.264 55.052 M193.025 55.914 L 192.371 56.222 193.025 56.092 C 193.384 56.021,193.826 55.881,194.005 55.781 C 194.592 55.454,193.760 55.567,193.025 55.914 M211.771 55.770 C 212.445 56.059,213.575 56.282,213.188 56.050 C 213.008 55.942,212.518 55.793,212.098 55.719 C 211.583 55.628,211.477 55.644,211.771 55.770 M252.127 56.676 C 253.113 58.133,253.507 58.570,252.947 57.586 C 252.720 57.187,252.260 56.549,251.925 56.169 C 251.485 55.669,251.541 55.809,252.127 56.676 M179.858 56.718 C 180.115 57.221,180.453 57.982,180.610 58.408 C 180.767 58.834,180.903 59.035,180.911 58.856 C 180.928 58.484,179.702 55.804,179.514 55.804 C 179.447 55.804,179.602 56.215,179.858 56.718 M225.494 56.914 C 225.302 57.285,225.184 57.627,225.231 57.674 C 225.278 57.721,225.480 57.418,225.679 57.000 C 226.128 56.060,225.972 55.988,225.494 56.914 M190.082 56.799 L 189.319 57.108 190.082 56.976 C 190.947 56.826,191.745 56.464,191.172 56.481 C 190.992 56.486,190.501 56.630,190.082 56.799 M214.823 56.646 C 215.063 56.751,215.602 56.899,216.022 56.976 C 216.546 57.070,216.648 57.054,216.349 56.923 C 216.109 56.818,215.569 56.670,215.150 56.594 C 214.626 56.499,214.524 56.515,214.823 56.646 M152.641 57.602 C 152.318 58.005,151.240 60.195,151.323 60.279 C 151.363 60.319,151.748 59.671,152.179 58.840 C 152.963 57.330,153.052 57.091,152.641 57.602 M187.279 57.580 C 186.876 57.696,186.588 57.833,186.640 57.885 C 186.692 57.936,187.169 57.842,187.700 57.676 C 188.784 57.336,188.417 57.252,187.279 57.580 M218.202 57.657 C 219.197 58.040,219.588 58.034,218.747 57.649 C 218.387 57.484,217.946 57.352,217.766 57.356 C 217.586 57.360,217.782 57.495,218.202 57.657 M184.891 58.351 C 184.374 58.533,183.989 58.722,184.037 58.769 C 184.136 58.868,186.158 58.204,186.158 58.072 C 186.158 57.936,185.910 57.990,184.891 58.351 M203.710 58.290 C 204.193 58.450,204.928 58.640,205.345 58.711 C 206.068 58.835,206.063 58.828,205.227 58.550 C 204.745 58.389,204.009 58.200,203.592 58.128 C 202.869 58.004,202.875 58.012,203.710 58.290 M220.272 58.286 C 220.632 58.450,221.172 58.644,221.471 58.717 C 221.909 58.825,221.888 58.792,221.362 58.553 C 221.003 58.390,220.463 58.195,220.163 58.122 C 219.726 58.014,219.747 58.047,220.272 58.286 M200.436 58.537 C 199.576 58.834,199.575 58.837,200.327 58.710 C 201.216 58.560,202.125 58.228,201.635 58.232 C 201.455 58.234,200.916 58.371,200.436 58.537 M224.648 59.019 C 224.560 59.409,224.459 59.728,224.423 59.728 C 224.388 59.728,223.993 59.575,223.545 59.388 C 223.098 59.201,222.689 59.091,222.636 59.145 C 222.583 59.198,222.814 59.341,223.150 59.462 C 223.485 59.584,223.931 59.752,224.139 59.836 C 224.531 59.995,225.071 59.070,224.890 58.550 C 224.844 58.418,224.735 58.629,224.648 59.019 M253.297 58.499 C 253.297 58.543,253.644 59.303,254.068 60.189 C 254.493 61.074,254.778 61.569,254.702 61.289 C 254.418 60.245,253.297 58.018,253.297 58.499 M182.561 59.295 C 182.075 59.534,181.930 59.664,182.234 59.589 C 182.871 59.433,183.970 58.874,183.651 58.870 C 183.531 58.868,183.041 59.060,182.561 59.295 M206.874 59.156 C 207.298 59.320,207.985 59.516,208.400 59.590 L 209.155 59.726 208.385 59.428 C 207.961 59.263,207.274 59.068,206.859 58.993 L 206.104 58.857 206.874 59.156 M166.463 59.314 C 159.639 60.384,156.693 69.943,161.657 74.908 C 163.426 76.677,163.484 76.663,165.230 74.085 C 167.801 70.286,169.875 68.015,173.243 65.308 C 175.061 63.847,175.033 63.926,174.157 62.653 C 172.501 60.246,169.321 58.866,166.463 59.314 M197.166 59.409 C 196.307 59.706,196.305 59.709,197.057 59.582 C 197.946 59.432,198.856 59.100,198.365 59.104 C 198.185 59.106,197.646 59.243,197.166 59.409 M236.839 59.222 C 234.332 59.784,230.627 62.456,230.627 63.702 C 230.627 63.753,231.646 64.641,232.892 65.677 C 235.531 67.871,237.909 70.615,240.162 74.067 L 241.767 76.527 242.656 76.029 C 246.253 74.015,247.496 67.730,245.105 63.650 C 243.333 60.627,239.568 58.610,236.839 59.222 M209.298 59.825 C 209.486 60.025,211.901 60.652,212.021 60.531 C 212.073 60.480,211.645 60.322,211.071 60.182 C 210.497 60.041,209.831 59.869,209.591 59.800 C 209.351 59.730,209.219 59.741,209.298 59.825 M194.223 60.272 C 193.804 60.434,193.608 60.566,193.787 60.566 C 193.967 60.566,194.458 60.434,194.877 60.272 C 195.297 60.111,195.493 59.979,195.313 59.979 C 195.134 59.979,194.643 60.111,194.223 60.272 M191.608 61.050 C 190.834 61.313,190.677 61.411,191.164 61.328 C 192.049 61.176,193.611 60.627,193.134 60.636 C 192.954 60.639,192.267 60.826,191.608 61.050 M212.316 60.683 C 212.316 60.803,213.434 61.131,214.605 61.354 C 215.202 61.467,215.192 61.452,214.488 61.175 C 213.534 60.801,212.316 60.524,212.316 60.683 M150.736 61.471 C 150.654 61.729,150.636 61.989,150.696 62.049 C 150.756 62.109,150.872 61.947,150.954 61.689 C 151.036 61.432,151.053 61.172,150.993 61.112 C 150.934 61.052,150.818 61.214,150.736 61.471 M216.131 61.778 C 216.490 61.936,217.079 62.124,217.439 62.195 L 218.093 62.325 217.439 62.037 C 217.079 61.879,216.490 61.691,216.131 61.619 L 215.477 61.489 216.131 61.778 M188.368 61.939 C 187.966 62.055,187.678 62.192,187.730 62.244 C 187.782 62.296,188.258 62.202,188.789 62.035 C 189.873 61.695,189.507 61.612,188.368 61.939 M185.831 62.896 C 185.286 63.159,185.268 63.189,185.722 63.078 C 186.340 62.927,187.034 62.573,186.703 62.578 C 186.583 62.580,186.191 62.723,185.831 62.896 M220.100 63.191 C 220.844 63.545,221.678 63.891,221.953 63.960 C 222.228 64.030,221.855 63.804,221.126 63.459 C 220.396 63.114,219.562 62.768,219.273 62.690 C 218.983 62.612,219.356 62.838,220.100 63.191 M255.064 62.670 C 255.062 62.790,255.200 63.477,255.371 64.196 C 255.673 65.464,255.679 65.472,255.562 64.440 C 255.453 63.480,255.075 62.135,255.064 62.670 M150.001 63.957 C 149.865 64.495,149.764 65.210,149.775 65.546 C 149.787 65.883,149.931 65.477,150.096 64.644 C 150.437 62.931,150.373 62.477,150.001 63.957 M182.943 64.080 C 181.954 64.549,181.144 64.981,181.144 65.041 C 181.144 65.137,184.826 63.492,185.050 63.295 C 185.362 63.021,184.497 63.343,182.943 64.080 M222.662 64.292 C 222.726 64.396,223.076 64.584,223.440 64.711 C 223.804 64.838,224.050 64.857,223.986 64.754 C 223.922 64.651,223.572 64.462,223.208 64.335 C 222.844 64.208,222.599 64.189,222.662 64.292 M180.054 65.633 C 179.693 65.929,179.656 66.003,179.946 65.853 C 180.657 65.486,181.051 65.184,180.817 65.185 C 180.698 65.186,180.354 65.387,180.054 65.633 M224.744 65.237 C 224.805 65.307,225.639 65.866,226.596 66.479 C 227.554 67.092,228.010 67.315,227.610 66.975 C 226.973 66.433,224.449 64.903,224.744 65.237 M255.765 67.139 C 255.765 67.918,255.804 68.237,255.853 67.847 C 255.901 67.458,255.901 66.820,255.853 66.431 C 255.804 66.041,255.765 66.360,255.765 67.139 M149.599 67.248 C 149.601 67.847,149.643 68.067,149.693 67.735 C 149.743 67.404,149.742 66.914,149.690 66.646 C 149.638 66.377,149.597 66.649,149.599 67.248 M177.094 67.700 L 176.240 68.478 177.166 67.772 C 178.013 67.127,178.219 66.921,178.020 66.921 C 177.980 66.921,177.563 67.271,177.094 67.700 M229.428 68.556 C 232.907 71.869,233.868 72.888,235.194 74.659 C 236.001 75.738,237.228 77.578,237.921 78.747 C 239.050 80.649,239.775 81.654,239.102 80.381 C 236.738 75.916,233.352 71.682,229.750 68.691 C 228.367 67.542,228.360 67.539,229.428 68.556 M175.041 69.428 C 174.511 69.967,174.127 70.409,174.187 70.409 C 174.247 70.409,174.729 69.967,175.259 69.428 C 175.788 68.888,176.173 68.447,176.113 68.447 C 176.053 68.447,175.570 68.888,175.041 69.428 M149.776 69.446 C 149.788 69.916,149.879 70.545,149.977 70.845 C 150.088 71.183,150.109 70.894,150.034 70.082 C 149.893 68.567,149.745 68.201,149.776 69.446 M255.505 69.864 C 255.488 70.223,255.371 70.891,255.244 71.348 C 255.117 71.805,255.054 72.295,255.105 72.438 C 255.244 72.834,255.739 70.262,255.631 69.701 C 255.556 69.313,255.530 69.347,255.505 69.864 M171.861 72.544 C 170.802 73.763,168.364 77.036,168.030 77.687 C 167.662 78.405,168.098 77.872,169.566 75.810 C 170.311 74.765,171.415 73.367,172.021 72.704 C 172.627 72.041,173.039 71.503,172.937 71.508 C 172.835 71.514,172.351 71.980,171.861 72.544 M150.419 72.530 C 150.406 72.865,151.090 74.596,151.194 74.492 C 151.236 74.450,151.081 73.931,150.850 73.339 C 150.618 72.746,150.425 72.382,150.419 72.530 M253.917 74.932 C 253.478 75.802,253.211 76.457,253.322 76.388 C 253.587 76.224,254.867 73.686,254.781 73.497 C 254.744 73.417,254.355 74.063,253.917 74.932 M151.750 75.653 C 152.023 76.139,152.380 76.647,152.542 76.782 C 152.705 76.917,152.522 76.519,152.136 75.898 C 151.303 74.558,151.041 74.392,151.750 75.653 M251.444 78.298 C 250.505 79.258,250.227 79.628,250.722 79.260 C 251.393 78.760,253.263 76.722,253.039 76.734 C 253.001 76.736,252.283 77.440,251.444 78.298 M154.449 78.801 C 155.636 79.945,157.166 81.073,157.166 80.804 C 157.166 80.753,156.749 80.436,156.240 80.099 C 155.730 79.762,154.814 79.038,154.203 78.490 C 153.592 77.942,153.702 78.082,154.449 78.801 M167.302 78.910 C 167.116 79.270,167.013 79.564,167.073 79.564 C 167.133 79.564,167.334 79.270,167.520 78.910 C 167.706 78.550,167.810 78.256,167.750 78.256 C 167.690 78.256,167.488 78.550,167.302 78.910 M165.656 81.985 C 165.048 83.196,164.603 84.240,164.667 84.304 C 164.731 84.368,164.878 84.172,164.993 83.869 C 165.108 83.566,165.602 82.522,166.091 81.550 C 166.580 80.578,166.931 79.782,166.871 79.782 C 166.811 79.782,166.264 80.773,165.656 81.985 M248.982 80.312 C 247.971 81.026,247.844 81.202,248.626 80.805 C 248.995 80.618,249.424 80.311,249.579 80.123 C 249.957 79.668,249.839 79.706,248.982 80.312 M157.384 80.975 C 157.384 81.035,157.997 81.392,158.747 81.769 C 159.496 82.146,160.181 82.564,160.269 82.698 C 160.383 82.872,160.430 82.864,160.433 82.673 C 160.434 82.525,159.749 82.058,158.910 81.635 C 158.071 81.212,157.384 80.915,157.384 80.975 M239.346 81.253 C 239.346 81.357,239.488 81.633,239.662 81.866 C 239.967 82.274,239.974 82.271,239.854 81.795 C 239.730 81.303,239.346 80.894,239.346 81.253 M245.777 82.063 C 245.417 82.228,245.276 82.370,245.462 82.380 C 245.649 82.390,245.993 82.254,246.225 82.078 C 246.751 81.680,246.622 81.676,245.777 82.063 M240.152 82.779 C 240.328 83.265,240.872 84.075,240.872 83.852 C 240.872 83.623,240.230 82.398,240.110 82.398 C 240.057 82.398,240.076 82.569,240.152 82.779 M245.257 82.725 C 245.261 82.845,245.453 83.335,245.683 83.815 C 245.914 84.294,246.042 84.441,245.967 84.142 C 245.813 83.524,245.245 82.391,245.257 82.725 M159.491 84.396 C 159.294 84.898,159.168 85.345,159.212 85.388 C 159.256 85.432,159.455 85.059,159.655 84.559 C 159.855 84.060,159.980 83.613,159.934 83.567 C 159.888 83.521,159.689 83.894,159.491 84.396 M241.203 84.948 C 241.545 85.766,241.744 86.082,241.744 85.806 C 241.744 85.529,241.115 84.142,240.989 84.142 C 240.921 84.142,241.018 84.504,241.203 84.948 M246.232 85.232 C 246.311 85.531,246.514 86.022,246.684 86.322 L 246.991 86.866 246.847 86.322 C 246.768 86.022,246.565 85.531,246.395 85.232 L 246.088 84.687 246.232 85.232 M163.851 85.922 C 163.654 86.424,163.528 86.871,163.572 86.914 C 163.615 86.958,163.815 86.585,164.015 86.085 C 164.214 85.586,164.340 85.139,164.294 85.093 C 164.248 85.047,164.048 85.420,163.851 85.922 M158.601 86.558 C 158.401 87.057,158.279 87.507,158.329 87.557 C 158.379 87.607,158.583 87.239,158.783 86.739 C 158.983 86.240,159.105 85.790,159.055 85.740 C 159.006 85.690,158.801 86.058,158.601 86.558 M242.087 87.193 C 242.167 87.493,242.323 87.886,242.435 88.065 C 242.575 88.293,242.592 88.226,242.491 87.847 C 242.411 87.548,242.254 87.155,242.143 86.975 C 242.003 86.748,241.985 86.815,242.087 87.193 M247.104 87.411 C 247.183 87.711,247.386 88.202,247.556 88.501 L 247.863 89.046 247.719 88.501 C 247.640 88.202,247.437 87.711,247.267 87.411 L 246.960 86.866 247.104 87.411 M183.802 87.597 C 183.525 87.675,184.291 87.738,185.504 87.738 C 186.717 87.738,187.483 87.675,187.206 87.597 C 186.929 87.519,186.163 87.455,185.504 87.455 C 184.845 87.455,184.079 87.519,183.802 87.597 M218.461 87.597 C 218.184 87.675,218.950 87.738,220.163 87.738 C 221.377 87.738,222.143 87.675,221.866 87.597 C 221.589 87.519,220.823 87.455,220.163 87.455 C 219.504 87.455,218.738 87.519,218.461 87.597 M157.844 88.526 C 157.710 88.911,157.638 89.264,157.685 89.311 C 157.732 89.357,157.880 89.080,158.014 88.695 C 158.148 88.310,158.220 87.957,158.173 87.910 C 158.127 87.863,157.979 88.140,157.844 88.526 M162.858 88.526 C 162.724 88.911,162.650 89.262,162.694 89.307 C 162.739 89.351,162.900 89.087,163.052 88.719 C 163.204 88.352,163.278 88.001,163.215 87.938 C 163.153 87.876,162.992 88.140,162.858 88.526 M223.642 88.406 C 224.297 88.710,225.278 89.316,225.822 89.751 C 226.747 90.490,226.771 90.497,226.189 89.866 C 225.552 89.176,223.283 87.846,222.749 87.850 C 222.586 87.851,222.988 88.101,223.642 88.406 M188.992 88.392 C 189.292 88.564,189.635 88.704,189.755 88.704 C 189.875 88.704,189.728 88.564,189.428 88.392 C 189.128 88.221,188.785 88.081,188.665 88.081 C 188.545 88.081,188.692 88.221,188.992 88.392 M215.848 88.551 C 215.332 88.815,214.400 89.508,213.777 90.091 L 212.643 91.151 213.737 90.271 C 214.338 89.787,215.368 89.094,216.025 88.732 C 217.398 87.976,217.255 87.831,215.848 88.551 M242.754 88.937 C 242.828 89.237,243.022 89.777,243.185 90.136 C 243.425 90.661,243.457 90.683,243.350 90.245 C 243.276 89.946,243.082 89.406,242.918 89.046 C 242.679 88.521,242.647 88.500,242.754 88.937 M180.235 89.319 C 179.369 90.035,178.824 90.635,178.502 91.226 C 178.372 91.466,178.574 91.298,178.951 90.853 C 179.328 90.409,179.998 89.746,180.440 89.382 C 180.882 89.018,181.180 88.719,181.102 88.719 C 181.024 88.719,180.634 88.989,180.235 89.319 M190.518 89.081 C 190.817 89.288,191.630 90.026,192.324 90.722 C 193.017 91.419,193.491 91.813,193.376 91.598 C 193.081 91.047,191.140 89.264,190.504 88.961 L 189.973 88.707 190.518 89.081 M247.986 89.591 C 248.059 89.891,248.253 90.431,248.417 90.790 C 248.656 91.315,248.689 91.337,248.581 90.899 C 248.508 90.599,248.313 90.060,248.150 89.700 C 247.911 89.175,247.878 89.154,247.986 89.591 M156.864 91.251 C 156.671 91.818,156.551 92.319,156.597 92.365 C 156.643 92.411,156.839 91.985,157.032 91.419 C 157.225 90.853,157.345 90.352,157.299 90.305 C 157.253 90.259,157.057 90.685,156.864 91.251 M161.986 90.923 C 161.852 91.309,161.780 91.662,161.827 91.709 C 161.873 91.755,162.021 91.478,162.156 91.093 C 162.290 90.708,162.362 90.354,162.315 90.308 C 162.268 90.261,162.120 90.538,161.986 90.923 M227.571 92.320 C 227.988 93.202,228.365 93.888,228.408 93.845 C 228.526 93.727,227.337 91.154,227.056 90.920 C 226.922 90.808,227.153 91.438,227.571 92.320 M243.626 91.335 C 243.699 91.635,243.894 92.174,244.057 92.534 C 244.297 93.059,244.329 93.081,244.221 92.643 C 244.148 92.343,243.954 91.804,243.790 91.444 C 243.551 90.919,243.519 90.897,243.626 91.335 M177.902 92.231 C 177.790 92.518,177.493 93.226,177.242 93.806 C 176.508 95.497,176.743 95.300,177.564 93.536 C 177.978 92.648,178.268 91.874,178.210 91.816 C 178.152 91.758,178.013 91.945,177.902 92.231 M161.217 92.879 C 161.017 93.379,160.895 93.828,160.945 93.878 C 160.994 93.928,161.199 93.560,161.399 93.061 C 161.599 92.561,161.721 92.112,161.671 92.062 C 161.621 92.012,161.417 92.380,161.217 92.879 M193.824 92.872 C 193.952 93.238,194.096 93.497,194.146 93.447 C 194.254 93.339,193.842 92.207,193.695 92.207 C 193.639 92.207,193.696 92.506,193.824 92.872 M249.062 92.643 C 249.142 92.943,249.299 93.335,249.410 93.515 C 249.550 93.742,249.568 93.676,249.466 93.297 C 249.386 92.997,249.230 92.605,249.119 92.425 C 248.978 92.198,248.961 92.264,249.062 92.643 M211.493 93.168 C 211.361 93.457,211.195 94.071,211.125 94.531 C 211.027 95.169,211.099 95.059,211.429 94.069 C 211.877 92.722,211.911 92.251,211.493 93.168 M155.883 93.975 C 155.748 94.360,155.677 94.714,155.723 94.760 C 155.770 94.807,155.918 94.530,156.052 94.145 C 156.186 93.759,156.258 93.406,156.211 93.360 C 156.165 93.313,156.017 93.590,155.883 93.975 M244.592 93.951 C 244.593 94.131,244.741 94.523,244.921 94.823 L 245.250 95.368 245.105 94.823 C 244.896 94.032,244.591 93.514,244.592 93.951 M160.458 94.954 C 160.304 95.379,160.226 95.776,160.285 95.835 C 160.344 95.894,160.510 95.586,160.654 95.150 C 160.995 94.118,160.822 93.945,160.458 94.954 M194.544 97.787 C 194.539 99.951,194.594 100.844,194.688 100.163 C 194.874 98.821,194.874 95.808,194.688 94.954 C 194.612 94.606,194.547 95.881,194.544 97.787 M228.671 94.667 C 228.641 95.542,230.113 97.427,233.272 100.555 C 236.831 104.080,237.144 104.507,237.196 105.900 C 237.217 106.461,237.255 106.546,237.324 106.184 C 237.599 104.728,237.266 104.230,233.587 100.602 C 230.943 97.995,229.874 96.781,229.362 95.804 C 228.985 95.084,228.674 94.573,228.671 94.667 M249.934 95.041 C 250.014 95.341,250.171 95.733,250.282 95.913 C 250.422 96.140,250.440 96.074,250.338 95.695 C 250.258 95.395,250.102 95.003,249.990 94.823 C 249.850 94.596,249.833 94.662,249.934 95.041 M155.121 96.047 C 154.928 96.613,154.807 97.114,154.854 97.160 C 154.900 97.207,155.095 96.781,155.288 96.215 C 155.481 95.648,155.601 95.147,155.555 95.101 C 155.509 95.055,155.313 95.481,155.121 96.047 M176.240 95.913 C 176.054 96.272,175.951 96.567,176.011 96.567 C 176.071 96.567,176.272 96.272,176.458 95.913 C 176.644 95.553,176.747 95.259,176.687 95.259 C 176.627 95.259,176.426 95.553,176.240 95.913 M210.871 97.657 C 210.871 98.916,210.907 99.431,210.951 98.801 C 210.995 98.172,210.995 97.142,210.951 96.512 C 210.907 95.883,210.871 96.398,210.871 97.657 M184.196 96.049 C 181.668 96.911,180.528 98.536,180.760 100.948 C 181.211 105.646,187.942 105.885,189.010 101.240 C 189.661 98.410,186.685 95.200,184.196 96.049 M218.756 96.627 C 216.761 97.757,215.946 100.168,216.896 102.131 C 218.829 106.124,224.959 104.880,224.959 100.494 C 224.959 97.151,221.565 95.035,218.756 96.627 M245.575 96.567 C 245.655 96.866,245.811 97.259,245.922 97.439 C 246.063 97.666,246.080 97.599,245.979 97.221 C 245.898 96.921,245.742 96.529,245.631 96.349 C 245.490 96.122,245.473 96.188,245.575 96.567 M159.588 97.463 C 159.454 97.848,159.382 98.201,159.429 98.248 C 159.475 98.295,159.624 98.018,159.758 97.632 C 159.892 97.247,159.964 96.894,159.917 96.847 C 159.871 96.801,159.723 97.078,159.588 97.463 M175.155 97.602 C 174.829 98.052,173.714 99.241,172.676 100.245 C 170.826 102.035,170.820 102.044,172.365 100.718 C 173.757 99.523,175.318 97.849,175.780 97.057 C 176.119 96.475,175.717 96.826,175.155 97.602 M250.806 97.439 C 250.886 97.738,251.043 98.131,251.154 98.311 C 251.294 98.538,251.312 98.471,251.210 98.093 C 251.130 97.793,250.974 97.401,250.862 97.221 C 250.722 96.993,250.705 97.060,250.806 97.439 M246.340 98.747 C 246.341 99.149,246.933 100.478,246.958 100.134 C 246.968 99.998,246.832 99.557,246.657 99.153 C 246.482 98.750,246.339 98.567,246.340 98.747 M251.463 99.401 C 251.542 99.700,251.738 100.240,251.898 100.599 L 252.189 101.253 252.059 100.599 C 251.987 100.240,251.792 99.700,251.624 99.401 L 251.319 98.856 251.463 99.401 M158.608 100.189 C 158.415 100.755,158.295 101.256,158.341 101.302 C 158.387 101.348,158.583 100.923,158.776 100.356 C 158.969 99.790,159.089 99.289,159.043 99.243 C 158.997 99.197,158.801 99.622,158.608 100.189 M153.485 100.733 C 153.350 101.118,153.279 101.471,153.325 101.518 C 153.372 101.564,153.520 101.287,153.654 100.902 C 153.789 100.517,153.860 100.164,153.814 100.117 C 153.767 100.070,153.619 100.347,153.485 100.733 M247.112 100.926 C 247.316 101.747,247.812 102.825,247.813 102.452 C 247.814 102.272,247.626 101.733,247.396 101.253 C 247.165 100.774,247.037 100.627,247.112 100.926 M211.231 101.421 C 211.228 101.513,211.925 102.396,212.779 103.383 C 213.633 104.370,214.973 106.035,215.757 107.084 C 216.542 108.134,217.222 108.992,217.270 108.992 C 217.512 108.992,215.748 106.625,213.672 104.164 C 212.746 103.067,211.820 101.964,211.612 101.712 C 211.405 101.460,211.234 101.329,211.231 101.421 M157.774 102.349 C 157.707 102.586,157.585 102.975,157.504 103.215 C 157.423 103.455,157.516 103.376,157.711 103.039 C 157.906 102.702,158.028 102.312,157.981 102.172 C 157.935 102.033,157.841 102.112,157.774 102.349 M252.550 102.452 C 252.630 102.752,252.787 103.144,252.898 103.324 C 253.038 103.551,253.055 103.485,252.954 103.106 C 252.874 102.807,252.717 102.414,252.606 102.234 C 252.466 102.007,252.449 102.074,252.550 102.452 M169.580 103.052 L 168.828 103.869 169.646 103.118 C 170.407 102.419,170.563 102.234,170.397 102.234 C 170.361 102.234,169.993 102.602,169.580 103.052 M152.589 103.106 C 152.436 103.474,152.363 103.825,152.425 103.887 C 152.487 103.950,152.648 103.685,152.782 103.300 C 152.917 102.915,152.990 102.563,152.946 102.519 C 152.902 102.475,152.741 102.739,152.589 103.106 M192.275 103.852 L 191.526 104.741 192.373 103.931 C 192.839 103.485,193.177 103.085,193.123 103.042 C 193.069 102.999,192.687 103.364,192.275 103.852 M248.080 103.542 C 248.080 103.722,248.229 104.114,248.409 104.414 L 248.738 104.959 248.593 104.414 C 248.383 103.623,248.078 103.105,248.080 103.542 M168.509 104.400 C 168.256 104.873,168.249 107.013,168.498 108.011 C 168.587 108.371,168.612 107.825,168.552 106.798 C 168.481 105.588,168.532 104.764,168.698 104.455 C 168.838 104.193,168.904 103.978,168.844 103.978 C 168.784 103.978,168.633 104.168,168.509 104.400 M156.754 105.092 C 156.620 105.478,156.547 105.829,156.591 105.873 C 156.635 105.918,156.796 105.653,156.948 105.286 C 157.100 104.919,157.174 104.567,157.112 104.505 C 157.050 104.443,156.889 104.707,156.754 105.092 M253.422 104.850 C 253.502 105.150,253.659 105.542,253.770 105.722 C 253.910 105.949,253.927 105.883,253.826 105.504 C 253.746 105.204,253.589 104.812,253.478 104.632 C 253.338 104.405,253.321 104.471,253.422 104.850 M151.741 105.528 C 151.607 105.914,151.535 106.267,151.581 106.314 C 151.628 106.360,151.776 106.083,151.910 105.698 C 152.045 105.313,152.116 104.959,152.070 104.913 C 152.023 104.866,151.875 105.143,151.741 105.528 M249.085 106.267 C 249.156 106.627,249.296 107.068,249.396 107.248 C 249.723 107.835,249.610 107.003,249.263 106.267 L 248.955 105.613 249.085 106.267 M155.992 107.382 C 155.799 107.948,155.679 108.450,155.725 108.496 C 155.772 108.542,155.967 108.116,156.160 107.550 C 156.353 106.983,156.473 106.482,156.427 106.436 C 156.381 106.390,156.185 106.816,155.992 107.382 M254.294 107.248 C 254.374 107.548,254.531 107.940,254.642 108.120 C 254.782 108.347,254.799 108.281,254.698 107.902 C 254.618 107.602,254.461 107.210,254.350 107.030 C 254.210 106.803,254.193 106.869,254.294 107.248 M188.919 108.071 C 188.085 109.207,186.262 112.480,186.463 112.480 C 186.532 112.480,186.877 111.907,187.230 111.207 C 187.584 110.507,188.320 109.280,188.867 108.482 C 190.013 106.807,190.048 106.533,188.919 108.071 M236.856 108.150 C 236.774 108.767,236.661 109.576,236.604 109.949 C 236.516 110.528,236.531 110.557,236.712 110.151 C 236.950 109.616,237.282 107.030,237.113 107.030 C 237.053 107.030,236.938 107.534,236.856 108.150 M150.662 108.238 C 150.297 109.040,150.367 109.211,150.761 108.482 C 150.946 108.142,151.056 107.823,151.006 107.773 C 150.956 107.723,150.801 107.932,150.662 108.238 M249.591 107.738 C 249.592 108.022,250.657 110.977,250.667 110.724 C 250.683 110.344,249.819 107.684,249.680 107.684 C 249.631 107.684,249.591 107.708,249.591 107.738 M255.059 109.032 C 255.049 109.114,255.141 109.444,255.263 109.764 C 255.410 110.153,255.412 110.607,255.268 111.129 C 255.150 111.558,255.093 111.950,255.141 111.999 C 255.462 112.319,255.677 110.257,255.391 109.603 C 255.218 109.207,255.068 108.950,255.059 109.032 M155.084 110.173 C 155.007 110.583,155.028 111.066,155.129 111.247 C 155.250 111.463,155.319 111.208,155.329 110.502 C 155.348 109.240,155.277 109.145,155.084 110.173 M150.023 110.518 C 150.023 110.937,150.068 111.109,150.123 110.899 C 150.178 110.689,150.178 110.346,150.123 110.136 C 150.068 109.926,150.023 110.098,150.023 110.518 M168.974 110.191 C 168.971 110.655,169.533 112.521,169.564 112.153 C 169.574 112.033,169.446 111.444,169.280 110.845 C 169.113 110.245,168.975 109.951,168.974 110.191 M218.311 110.954 C 218.497 111.313,218.698 111.608,218.758 111.608 C 218.818 111.608,218.715 111.313,218.529 110.954 C 218.343 110.594,218.141 110.300,218.081 110.300 C 218.022 110.300,218.125 110.594,218.311 110.954 M250.051 111.850 C 249.917 112.235,249.845 112.588,249.892 112.635 C 249.939 112.682,250.087 112.405,250.221 112.019 C 250.355 111.634,250.427 111.281,250.380 111.234 C 250.334 111.188,250.186 111.465,250.051 111.850 M235.979 112.197 C 235.720 113.246,234.750 114.726,233.593 115.837 C 232.810 116.589,232.695 116.759,233.203 116.411 C 234.558 115.484,236.703 112.161,236.243 111.702 C 236.180 111.639,236.061 111.862,235.979 112.197 M150.424 112.153 C 150.424 112.272,150.564 112.616,150.736 112.916 C 150.907 113.215,151.047 113.362,151.047 113.243 C 151.047 113.123,150.907 112.779,150.736 112.480 C 150.564 112.180,150.424 112.033,150.424 112.153 M155.769 112.698 C 155.848 112.997,156.051 113.488,156.220 113.787 L 156.528 114.332 156.384 113.787 C 156.305 113.488,156.101 112.997,155.932 112.698 L 155.624 112.153 155.769 112.698 M219.084 112.425 C 219.099 112.650,220.576 115.456,220.589 115.283 C 220.604 115.087,219.269 112.262,219.162 112.262 C 219.113 112.262,219.078 112.335,219.084 112.425 M254.411 113.376 C 254.094 114.285,254.246 114.437,254.605 113.569 C 254.757 113.202,254.831 112.851,254.768 112.788 C 254.706 112.726,254.545 112.990,254.411 113.376 M185.791 113.515 C 185.716 113.725,185.614 113.995,185.563 114.114 C 185.513 114.234,185.626 114.142,185.815 113.909 C 186.158 113.487,186.261 113.134,186.042 113.134 C 185.978 113.134,185.865 113.305,185.791 113.515 M248.808 114.808 C 247.995 116.685,247.961 116.783,248.218 116.512 C 248.514 116.201,249.649 113.555,249.536 113.441 C 249.484 113.389,249.156 114.004,248.808 114.808 M151.281 114.085 C 151.281 114.362,151.910 115.749,152.035 115.749 C 152.103 115.749,152.007 115.387,151.822 114.943 C 151.480 114.125,151.281 113.809,151.281 114.085 M156.746 115.046 C 156.881 115.433,157.080 115.805,157.189 115.873 C 157.298 115.940,157.270 115.719,157.126 115.382 C 156.741 114.477,156.461 114.230,156.746 115.046 M184.567 116.088 C 184.123 116.985,183.765 117.790,183.771 117.878 C 183.777 117.966,184.176 117.268,184.657 116.326 C 185.138 115.385,185.496 114.579,185.453 114.536 C 185.410 114.492,185.011 115.191,184.567 116.088 M253.502 115.453 C 253.263 116.010,253.106 116.502,253.151 116.548 C 253.197 116.594,253.439 116.139,253.690 115.536 C 253.940 114.934,254.098 114.441,254.040 114.441 C 253.983 114.441,253.740 114.897,253.502 115.453 M171.771 115.840 C 172.268 116.390,173.079 116.969,173.079 116.774 C 173.079 116.730,172.662 116.366,172.153 115.966 C 171.339 115.326,171.293 115.311,171.771 115.840 M152.168 116.076 C 152.168 116.196,152.308 116.540,152.480 116.839 C 152.651 117.139,152.791 117.286,152.791 117.166 C 152.791 117.046,152.651 116.703,152.480 116.403 C 152.308 116.104,152.168 115.956,152.168 116.076 M220.817 116.044 C 220.817 116.272,221.461 117.493,221.581 117.493 C 221.704 117.493,221.235 116.369,220.994 116.087 C 220.897 115.973,220.817 115.954,220.817 116.044 M157.384 116.269 C 157.384 116.503,158.033 117.711,158.158 117.711 C 158.218 117.711,158.105 117.392,157.907 117.003 C 157.502 116.207,157.384 116.041,157.384 116.269 M173.468 117.109 C 173.721 117.415,174.605 117.787,174.605 117.587 C 174.605 117.542,174.286 117.340,173.896 117.138 C 173.298 116.828,173.231 116.824,173.468 117.109 M231.662 117.182 C 230.847 117.624,230.897 117.808,231.717 117.384 C 232.076 117.198,232.371 116.999,232.371 116.943 C 232.371 116.802,232.347 116.810,231.662 117.182 M252.631 117.416 C 252.511 117.733,252.351 118.091,252.276 118.212 C 252.201 118.333,252.243 118.368,252.370 118.290 C 252.610 118.142,253.134 116.839,252.953 116.839 C 252.897 116.839,252.752 117.099,252.631 117.416 M206.757 117.493 C 205.954 117.603,206.326 117.645,208.174 117.651 C 209.737 117.656,210.435 117.597,210.027 117.493 C 209.239 117.293,208.220 117.293,206.757 117.493 M247.549 117.447 C 247.324 117.811,246.984 118.801,247.084 118.801 C 247.248 118.801,247.887 117.460,247.776 117.349 C 247.720 117.293,247.617 117.337,247.549 117.447 M196.573 117.653 C 197.085 117.699,197.870 117.698,198.316 117.652 C 198.763 117.605,198.343 117.567,197.384 117.568 C 196.425 117.569,196.060 117.607,196.573 117.653 M200.163 117.861 C 200.373 117.916,200.717 117.916,200.926 117.861 C 201.136 117.807,200.965 117.762,200.545 117.762 C 200.125 117.762,199.954 117.807,200.163 117.861 M204.196 117.865 C 204.466 117.917,204.907 117.917,205.177 117.865 C 205.447 117.813,205.226 117.771,204.687 117.771 C 204.147 117.771,203.926 117.813,204.196 117.865 M221.700 117.773 C 221.679 118.121,222.759 120.038,223.144 120.337 C 223.521 120.630,223.523 120.623,223.186 120.214 C 222.990 119.977,222.578 119.292,222.270 118.692 C 221.962 118.093,221.705 117.679,221.700 117.773 M229.755 118.147 C 229.335 118.377,229.090 118.565,229.210 118.565 C 229.330 118.565,229.771 118.377,230.191 118.147 C 230.610 117.917,230.856 117.729,230.736 117.729 C 230.616 117.729,230.174 117.917,229.755 118.147 M153.282 118.515 C 153.667 119.419,153.947 119.666,153.663 118.850 C 153.528 118.463,153.328 118.091,153.219 118.024 C 153.110 117.956,153.139 118.177,153.282 118.515 M158.272 118.038 C 158.272 118.158,158.412 118.501,158.583 118.801 C 158.754 119.101,158.895 119.248,158.895 119.128 C 158.895 119.008,158.754 118.665,158.583 118.365 C 158.412 118.065,158.272 117.918,158.272 118.038 M175.695 118.256 C 175.995 118.427,176.338 118.568,176.458 118.568 C 176.578 118.568,176.431 118.427,176.131 118.256 C 175.831 118.085,175.488 117.945,175.368 117.945 C 175.248 117.945,175.395 118.085,175.695 118.256 M193.300 118.270 C 191.909 119.025,191.629 121.113,192.693 122.791 C 193.050 123.354,193.399 123.815,193.469 123.815 C 193.607 123.815,193.508 123.635,192.761 122.531 C 191.793 121.099,192.193 119.087,193.595 118.340 C 194.001 118.124,194.234 117.947,194.114 117.947 C 193.995 117.947,193.628 118.092,193.300 118.270 M211.975 118.214 C 212.675 118.645,213.375 119.462,213.473 119.964 C 213.560 120.412,213.566 120.410,213.594 119.924 C 213.627 119.366,212.352 117.920,211.847 117.942 C 211.664 117.950,211.712 118.053,211.975 118.214 M183.074 119.250 C 182.760 119.839,182.591 120.267,182.698 120.201 C 182.933 120.056,183.822 118.354,183.718 118.250 C 183.678 118.210,183.388 118.660,183.074 119.250 M177.221 118.892 C 177.520 119.052,178.011 119.244,178.311 119.318 C 178.610 119.393,178.463 119.265,177.984 119.035 C 176.997 118.560,176.386 118.446,177.221 118.892 M226.158 119.473 C 224.839 119.933,223.882 120.313,224.030 120.318 C 224.402 120.330,228.261 119.070,228.665 118.805 C 229.195 118.456,228.695 118.589,226.158 119.473 M251.807 119.137 C 251.441 119.939,251.511 120.110,251.906 119.381 C 252.090 119.041,252.200 118.722,252.151 118.672 C 252.101 118.622,251.946 118.832,251.807 119.137 M245.261 122.210 C 244.398 123.964,243.727 125.434,243.770 125.478 C 243.814 125.521,244.556 124.122,245.420 122.368 C 246.284 120.614,246.954 119.143,246.911 119.100 C 246.867 119.056,246.125 120.456,245.261 122.210 M179.216 119.552 C 179.405 119.753,181.819 120.379,181.939 120.259 C 181.991 120.207,181.563 120.050,180.989 119.909 C 180.415 119.768,179.749 119.597,179.510 119.527 C 179.270 119.458,179.138 119.469,179.216 119.552 M153.896 119.757 C 153.896 119.990,154.545 121.199,154.671 121.199 C 154.731 121.199,154.617 120.880,154.419 120.490 C 154.015 119.695,153.896 119.529,153.896 119.757 M250.833 121.311 C 250.633 121.729,250.515 122.071,250.570 122.071 C 250.719 122.071,251.381 120.736,251.281 120.636 C 251.234 120.589,251.032 120.893,250.833 121.311 M213.140 122.109 C 212.869 122.745,212.848 122.916,213.065 122.736 C 213.344 122.505,213.724 121.444,213.580 121.300 C 213.544 121.264,213.346 121.628,213.140 122.109 M154.768 121.500 C 154.768 121.734,155.417 122.943,155.543 122.943 C 155.602 122.943,155.489 122.624,155.291 122.234 C 154.887 121.439,154.768 121.273,154.768 121.500 M160.000 121.718 C 160.000 121.952,160.649 123.161,160.774 123.161 C 160.834 123.161,160.721 122.842,160.523 122.452 C 160.118 121.657,160.000 121.491,160.000 121.718 M249.961 123.055 C 249.761 123.473,249.643 123.815,249.698 123.815 C 249.847 123.815,250.509 122.480,250.409 122.380 C 250.362 122.333,250.160 122.636,249.961 123.055 M212.093 123.697 C 211.796 123.992,211.014 124.530,210.354 124.892 C 209.695 125.254,209.253 125.552,209.373 125.553 C 209.762 125.556,211.756 124.313,212.300 123.729 C 212.970 123.008,212.811 122.984,212.093 123.697 M160.894 123.488 C 160.894 123.608,161.276 124.441,161.744 125.341 C 162.212 126.240,162.594 126.877,162.594 126.757 C 162.594 126.638,162.212 125.804,161.744 124.905 C 161.276 124.005,160.894 123.368,160.894 123.488 M193.988 124.112 C 194.278 124.469,195.095 125.010,195.095 124.844 C 195.095 124.803,194.777 124.535,194.387 124.250 C 193.949 123.929,193.796 123.876,193.988 124.112 M249.156 124.468 C 248.981 124.795,249.004 125.053,249.248 125.503 C 249.427 125.833,249.576 126.005,249.579 125.886 C 249.582 125.766,249.497 125.529,249.389 125.359 C 249.275 125.178,249.274 124.839,249.387 124.541 C 249.624 123.919,249.475 123.872,249.156 124.468 M197.493 126.104 C 197.793 126.275,198.136 126.415,198.256 126.415 C 198.376 126.415,198.229 126.275,197.929 126.104 C 197.629 125.932,197.286 125.792,197.166 125.792 C 197.046 125.792,197.193 125.932,197.493 126.104 M207.761 126.013 C 207.474 126.128,207.294 126.277,207.361 126.343 C 207.427 126.410,207.760 126.314,208.101 126.129 C 208.785 125.758,208.577 125.687,207.761 126.013 M243.093 126.768 C 242.436 128.120,242.509 128.309,243.186 127.009 C 243.488 126.427,243.698 125.915,243.653 125.869 C 243.607 125.823,243.355 126.228,243.093 126.768 M249.918 126.866 C 250.104 127.226,250.305 127.520,250.365 127.520 C 250.425 127.520,250.322 127.226,250.136 126.866 C 249.950 126.507,249.749 126.213,249.689 126.213 C 249.629 126.213,249.732 126.507,249.918 126.866 M198.583 126.528 C 198.583 126.588,198.877 126.789,199.237 126.975 C 199.597 127.161,199.891 127.265,199.891 127.205 C 199.891 127.145,199.597 126.943,199.237 126.757 C 198.877 126.571,198.583 126.468,198.583 126.528 M206.079 126.994 C 205.242 127.551,204.687 128.115,204.687 128.408 C 204.687 128.491,205.056 128.203,205.507 127.767 C 205.958 127.332,206.522 126.859,206.760 126.716 C 206.999 126.573,207.134 126.450,207.060 126.443 C 206.987 126.436,206.546 126.684,206.079 126.994 M155.085 127.541 C 154.893 127.912,154.775 128.254,154.822 128.301 C 154.870 128.348,155.071 128.045,155.271 127.627 C 155.719 126.687,155.564 126.615,155.085 127.541 M162.631 127.193 C 162.631 127.313,162.771 127.657,162.943 127.956 C 163.114 128.256,163.254 128.403,163.254 128.283 C 163.254 128.163,163.114 127.820,162.943 127.520 C 162.771 127.221,162.631 127.074,162.631 127.193 M200.428 127.689 C 200.873 128.224,200.974 129.204,200.691 130.245 C 200.557 130.742,200.575 130.839,200.768 130.650 C 201.282 130.145,201.144 128.237,200.553 127.690 L 200.016 127.193 200.428 127.689 M242.215 128.729 C 241.850 129.530,241.920 129.701,242.315 128.973 C 242.499 128.632,242.609 128.313,242.559 128.263 C 242.509 128.213,242.355 128.423,242.215 128.729 M154.213 129.285 C 154.021 129.655,153.903 129.997,153.950 130.045 C 153.998 130.092,154.199 129.789,154.399 129.371 C 154.847 128.430,154.692 128.359,154.213 129.285 M163.616 129.482 C 163.695 129.782,163.899 130.272,164.068 130.572 L 164.376 131.117 164.231 130.572 C 164.152 130.272,163.949 129.782,163.780 129.482 L 163.472 128.937 163.616 129.482 M251.357 129.591 C 251.357 129.711,251.739 130.545,252.207 131.444 C 252.675 132.343,253.057 132.981,253.057 132.861 C 253.057 132.741,252.675 131.907,252.207 131.008 C 251.739 130.109,251.357 129.471,251.357 129.591 M240.973 131.585 L 240.132 133.472 238.159 134.405 C 237.073 134.918,236.257 135.344,236.345 135.353 C 236.433 135.361,237.344 134.980,238.371 134.506 L 240.237 133.643 241.118 131.763 C 241.603 130.729,241.958 129.841,241.907 129.790 C 241.856 129.739,241.436 130.547,240.973 131.585 M204.695 130.142 C 204.678 130.829,205.605 131.859,206.757 132.433 C 207.117 132.612,207.227 132.634,207.001 132.483 C 205.956 131.782,205.259 131.084,204.993 130.474 C 204.834 130.108,204.700 129.959,204.695 130.142 M153.468 130.776 C 153.192 131.292,153.179 131.509,153.434 131.351 C 153.627 131.233,153.926 130.354,153.775 130.354 C 153.730 130.354,153.592 130.544,153.468 130.776 M200.101 131.345 C 199.590 131.961,198.527 132.609,197.185 133.123 C 196.286 133.467,196.104 133.587,196.621 133.495 C 197.863 133.274,201.400 131.008,200.503 131.008 C 200.436 131.008,200.254 131.160,200.101 131.345 M164.578 131.773 C 164.904 132.629,165.473 133.673,165.565 133.581 C 165.662 133.485,164.607 131.226,164.466 131.226 C 164.413 131.226,164.464 131.472,164.578 131.773 M152.469 132.772 C 152.277 133.143,152.159 133.485,152.206 133.533 C 152.254 133.580,152.456 133.276,152.655 132.858 C 153.103 131.918,152.948 131.846,152.469 132.772 M188.603 132.438 C 187.318 133.338,187.227 134.648,188.375 135.701 L 189.081 136.349 188.383 135.524 C 187.583 134.580,187.573 134.529,188.000 133.508 C 188.403 132.542,189.198 132.148,190.027 132.503 C 190.583 132.740,190.596 132.735,190.204 132.429 C 189.665 132.008,189.214 132.010,188.603 132.438 M215.187 132.445 C 214.915 132.636,214.182 132.976,213.558 133.200 C 212.935 133.425,212.623 133.612,212.865 133.616 C 213.385 133.625,216.504 132.138,216.016 132.114 C 215.833 132.105,215.460 132.254,215.187 132.445 M216.745 132.342 C 216.963 132.469,217.331 132.883,217.562 133.262 C 217.793 133.641,217.982 133.836,217.983 133.695 C 217.984 133.336,216.908 132.097,216.602 132.105 C 216.463 132.108,216.527 132.215,216.745 132.342 M190.853 132.983 C 190.979 133.188,192.472 133.705,192.591 133.585 C 192.636 133.540,192.240 133.347,191.709 133.156 C 191.179 132.966,190.794 132.888,190.853 132.983 M208.065 133.056 C 208.425 133.220,209.063 133.412,209.482 133.482 C 210.142 133.592,210.116 133.567,209.288 133.295 C 207.849 132.821,207.332 132.720,208.065 133.056 M165.886 133.731 C 165.886 133.880,167.220 134.542,167.320 134.442 C 167.367 134.395,167.064 134.193,166.646 133.994 C 166.228 133.794,165.886 133.676,165.886 133.731 M193.737 133.782 C 194.129 133.830,194.717 133.829,195.045 133.780 C 195.372 133.730,195.052 133.690,194.332 133.692 C 193.613 133.693,193.345 133.733,193.737 133.782 M253.951 134.932 C 254.314 135.651,254.660 136.240,254.720 136.240 C 254.780 136.240,254.532 135.651,254.169 134.932 C 253.806 134.213,253.460 133.624,253.400 133.624 C 253.340 133.624,253.588 134.213,253.951 134.932 M151.597 134.516 C 151.405 134.887,151.287 135.229,151.335 135.276 C 151.382 135.324,151.584 135.020,151.783 134.602 C 152.231 133.662,152.076 133.590,151.597 134.516 M167.629 134.552 C 167.803 134.751,171.836 136.465,171.924 136.377 C 171.968 136.334,171.170 135.940,170.151 135.502 C 167.979 134.569,167.481 134.381,167.629 134.552 M217.435 135.229 C 216.272 137.033,212.163 137.958,208.283 137.288 L 207.411 137.138 208.283 137.435 C 211.371 138.488,216.674 137.190,217.787 135.110 C 218.165 134.404,217.911 134.489,217.435 135.229 M201.199 135.804 C 200.779 136.034,200.514 136.226,200.610 136.231 C 200.841 136.243,202.071 135.603,202.071 135.471 C 202.071 135.329,202.058 135.333,201.199 135.804 M203.911 135.702 C 204.144 135.878,204.438 136.019,204.565 136.015 C 204.692 136.011,204.605 135.864,204.373 135.688 C 204.140 135.512,203.846 135.371,203.719 135.375 C 203.592 135.379,203.678 135.526,203.911 135.702 M234.550 135.944 C 233.891 136.248,233.117 136.588,232.831 136.701 C 232.544 136.814,232.358 136.954,232.417 137.013 C 232.476 137.072,233.348 136.733,234.355 136.260 C 235.361 135.788,236.087 135.399,235.967 135.397 C 235.847 135.395,235.210 135.641,234.550 135.944 M150.725 136.260 C 150.533 136.631,150.415 136.973,150.463 137.020 C 150.510 137.068,150.712 136.764,150.911 136.346 C 151.359 135.406,151.204 135.334,150.725 136.260 M189.210 136.377 C 189.210 136.525,190.766 137.154,190.871 137.049 C 190.919 137.001,190.565 136.807,190.084 136.618 C 189.603 136.429,189.210 136.321,189.210 136.377 M199.128 136.694 C 198.529 136.926,198.304 137.064,198.628 137.003 C 199.392 136.857,200.327 136.500,200.327 136.354 C 200.327 136.291,200.302 136.247,200.272 136.257 C 200.243 136.266,199.728 136.463,199.128 136.694 M205.341 136.354 C 205.341 136.481,206.035 136.763,206.866 136.973 C 207.166 137.049,207.019 136.922,206.540 136.691 C 205.614 136.246,205.341 136.169,205.341 136.354 M173.515 137.221 C 174.294 137.629,175.030 137.962,175.150 137.962 C 175.270 137.962,174.730 137.629,173.951 137.221 C 173.172 136.813,172.436 136.479,172.316 136.479 C 172.196 136.479,172.736 136.813,173.515 137.221 M255.164 137.221 C 255.569 138.392,255.515 138.568,254.280 140.074 L 253.045 141.580 254.267 140.272 C 255.677 138.762,255.869 138.265,255.372 137.406 C 255.175 137.064,255.081 136.981,255.164 137.221 M191.499 137.381 C 192.057 137.734,196.726 137.732,197.493 137.379 C 197.959 137.164,197.896 137.150,197.057 137.283 C 195.761 137.489,192.540 137.482,191.717 137.272 C 191.134 137.124,191.110 137.136,191.499 137.381 M230.368 137.843 C 228.794 138.593,228.073 139.102,229.319 138.584 C 230.419 138.128,232.300 137.130,232.044 137.141 C 231.924 137.145,231.170 137.461,230.368 137.843 M149.960 137.907 C 149.711 138.563,150.274 139.561,151.549 140.726 C 152.187 141.309,152.179 141.286,151.453 140.454 C 150.120 138.926,149.933 138.552,150.180 137.904 C 150.300 137.588,150.349 137.330,150.289 137.330 C 150.229 137.330,150.081 137.590,149.960 137.907 M178.067 139.317 C 179.552 140.030,180.816 140.564,180.877 140.504 C 180.937 140.443,180.753 140.303,180.466 140.192 C 180.180 140.081,178.977 139.539,177.793 138.987 C 176.609 138.435,175.579 137.992,175.504 138.002 C 175.429 138.013,176.583 138.604,178.067 139.317 M226.919 139.472 C 226.258 139.792,224.705 140.529,223.468 141.109 C 222.232 141.690,221.262 142.206,221.313 142.257 C 221.364 142.309,223.015 141.572,224.981 140.620 C 226.947 139.669,228.458 138.890,228.338 138.890 C 228.218 138.889,227.579 139.151,226.919 139.472 M182.888 141.580 C 183.668 141.988,184.403 142.322,184.523 142.322 C 184.643 142.322,184.104 141.988,183.324 141.580 C 182.545 141.172,181.809 140.839,181.689 140.839 C 181.569 140.839,182.109 141.172,182.888 141.580 M154.659 144.087 C 156.094 145.526,157.317 146.703,157.377 146.703 C 157.437 146.703,156.312 145.526,154.877 144.087 C 153.442 142.649,152.219 141.471,152.159 141.471 C 152.099 141.471,153.224 142.649,154.659 144.087 M251.684 142.912 C 251.096 143.558,250.704 144.077,250.812 144.064 C 250.920 144.051,251.489 143.511,252.076 142.865 C 252.664 142.218,253.056 141.700,252.948 141.713 C 252.840 141.726,252.271 142.265,251.684 142.912 M187.466 143.760 C 188.725 144.407,189.853 144.937,189.973 144.937 C 190.093 144.937,189.161 144.407,187.902 143.760 C 186.643 143.113,185.515 142.584,185.395 142.584 C 185.275 142.584,186.207 143.113,187.466 143.760 M219.673 142.904 C 218.828 143.362,218.924 143.521,219.782 143.084 C 220.604 142.666,220.749 142.558,220.472 142.570 C 220.362 142.575,220.003 142.725,219.673 142.904 M218.080 143.749 C 217.672 144.054,217.674 144.061,218.151 143.941 C 218.422 143.873,218.698 143.730,218.763 143.625 C 218.947 143.327,218.548 143.399,218.080 143.749 M215.259 145.087 C 214.420 145.498,213.962 145.774,214.242 145.703 C 214.878 145.539,217.112 144.524,217.112 144.398 C 217.112 144.221,216.777 144.345,215.259 145.087 M249.148 145.550 L 247.956 146.794 249.155 145.717 C 250.249 144.735,250.634 144.305,250.419 144.305 C 250.375 144.305,249.803 144.865,249.148 145.550 M190.736 145.268 C 191.035 145.428,191.526 145.620,191.826 145.694 C 192.125 145.769,191.978 145.641,191.499 145.411 C 190.512 144.936,189.901 144.822,190.736 145.268 M212.030 146.307 C 211.333 146.550,210.801 146.787,210.848 146.833 C 210.947 146.932,213.624 146.052,213.624 145.920 C 213.624 145.778,213.375 145.838,212.030 146.307 M193.569 146.376 C 194.565 146.759,194.956 146.754,194.114 146.368 C 193.755 146.203,193.313 146.072,193.134 146.075 C 192.954 146.079,193.150 146.214,193.569 146.376 M218.515 151.857 C 215.405 154.931,211.731 158.487,210.349 159.759 C 206.380 163.413,203.777 165.764,202.834 166.550 C 202.354 166.949,201.552 167.663,201.051 168.137 C 200.260 168.884,200.044 168.981,199.416 168.871 C 198.558 168.720,199.058 168.957,200.545 169.405 C 202.530 170.003,204.472 169.677,209.918 167.829 C 211.297 167.361,212.290 166.978,212.126 166.977 C 211.961 166.976,212.359 166.362,213.010 165.613 C 215.280 162.998,217.991 159.112,219.889 155.749 C 221.316 153.224,224.504 146.267,224.235 146.267 C 224.198 146.267,221.624 148.782,218.515 151.857 M157.919 147.111 C 158.598 147.888,162.834 151.244,162.834 151.006 C 162.834 150.946,162.272 150.473,161.586 149.955 C 160.900 149.437,159.698 148.475,158.916 147.819 C 158.133 147.162,157.685 146.843,157.919 147.111 M196.076 147.256 C 196.436 147.421,196.877 147.552,197.057 147.549 C 197.237 147.545,197.041 147.410,196.621 147.248 C 195.626 146.865,195.234 146.870,196.076 147.256 M209.087 147.288 C 208.570 147.471,208.186 147.659,208.233 147.706 C 208.339 147.813,210.572 147.159,210.572 147.022 C 210.572 146.851,210.068 146.941,209.087 147.288 M244.644 149.302 C 243.063 150.587,240.561 152.456,239.086 153.455 C 236.600 155.138,235.478 155.971,236.294 155.526 C 237.535 154.851,242.324 151.448,244.686 149.564 C 247.976 146.938,248.005 146.914,247.728 146.943 C 247.614 146.955,246.226 148.016,244.644 149.302 M198.365 147.993 C 198.545 148.095,199.035 148.238,199.455 148.311 L 200.218 148.443 199.455 148.135 C 198.569 147.776,197.813 147.678,198.365 147.993 M206.431 148.135 L 205.668 148.443 206.431 148.308 C 206.850 148.233,207.390 148.093,207.629 147.996 L 208.065 147.821 207.629 147.823 C 207.390 147.825,206.850 147.965,206.431 148.135 M201.930 148.920 C 202.392 149.021,203.226 149.020,203.783 148.918 C 204.692 148.752,204.606 148.733,202.943 148.734 C 201.417 148.736,201.238 148.769,201.930 148.920 M163.134 151.237 C 163.221 151.378,163.744 151.804,164.295 152.183 C 165.602 153.082,165.362 152.695,164.012 151.725 C 163.442 151.316,163.047 151.096,163.134 151.237 M165.544 153.002 C 165.626 153.133,165.894 153.349,166.142 153.481 C 166.465 153.654,166.550 153.654,166.445 153.483 C 166.364 153.352,166.095 153.136,165.847 153.004 C 165.525 152.831,165.439 152.831,165.544 153.002 M166.757 153.733 C 166.757 153.829,167.196 154.137,168.992 155.302 C 169.322 155.515,169.591 155.643,169.591 155.585 C 169.591 155.490,169.153 155.182,167.357 154.017 C 167.027 153.803,166.757 153.676,166.757 153.733 M170.245 156.040 C 170.868 156.555,172.425 157.463,172.425 157.311 C 172.425 157.255,172.098 157.016,171.698 156.780 C 171.298 156.544,170.685 156.180,170.335 155.970 L 169.700 155.589 170.245 156.040 M234.873 156.216 C 233.761 156.953,233.369 157.342,234.238 156.847 C 235.002 156.411,236.023 155.652,235.854 155.645 C 235.792 155.643,235.351 155.899,234.873 156.216 M232.643 157.627 C 231.900 158.103,231.660 158.423,232.316 158.062 C 232.816 157.787,233.600 157.181,233.460 157.177 C 233.401 157.175,233.033 157.378,232.643 157.627 M230.231 158.956 C 229.593 159.314,229.110 159.646,229.158 159.694 C 229.254 159.790,231.717 158.495,231.717 158.349 C 231.717 158.172,231.383 158.308,230.231 158.956 M175.695 159.231 C 175.695 159.291,176.283 159.637,177.003 160.000 C 177.722 160.363,178.311 160.611,178.311 160.551 C 178.311 160.491,177.722 160.145,177.003 159.782 C 176.283 159.419,175.695 159.171,175.695 159.231 M227.575 160.436 C 227.155 160.666,226.890 160.858,226.986 160.863 C 227.217 160.875,228.447 160.236,228.447 160.103 C 228.447 159.961,228.434 159.966,227.575 160.436 M180.272 161.635 C 181.052 162.043,181.787 162.377,181.907 162.377 C 182.027 162.377,181.488 162.043,180.708 161.635 C 179.929 161.227,179.193 160.893,179.074 160.893 C 178.954 160.893,179.493 161.227,180.272 161.635 M225.831 161.308 C 225.411 161.538,225.147 161.730,225.242 161.735 C 225.473 161.747,226.703 161.108,226.703 160.975 C 226.703 160.833,226.690 160.838,225.831 161.308 M224.087 162.180 C 223.668 162.410,223.403 162.602,223.499 162.607 C 223.730 162.619,224.959 161.979,224.959 161.847 C 224.959 161.705,224.946 161.709,224.087 162.180 M183.106 162.943 C 183.406 163.114,183.749 163.254,183.869 163.254 C 183.989 163.254,183.842 163.114,183.542 162.943 C 183.243 162.771,182.899 162.631,182.779 162.631 C 182.659 162.631,182.807 162.771,183.106 162.943 M222.234 163.040 C 221.755 163.267,221.424 163.460,221.499 163.470 C 221.711 163.497,223.215 162.841,223.215 162.722 C 223.215 162.576,223.215 162.576,222.234 163.040 M185.068 163.815 C 185.368 163.986,185.711 164.126,185.831 164.126 C 185.951 164.126,185.804 163.986,185.504 163.815 C 185.204 163.643,184.861 163.503,184.741 163.503 C 184.621 163.503,184.768 163.643,185.068 163.815 M220.381 163.815 C 220.082 163.986,219.935 164.126,220.054 164.126 C 220.174 164.126,220.518 163.986,220.817 163.815 C 221.117 163.643,221.264 163.503,221.144 163.503 C 221.025 163.503,220.681 163.643,220.381 163.815 M187.030 164.652 C 187.330 164.821,187.820 165.024,188.120 165.103 L 188.665 165.248 188.120 164.940 C 187.820 164.770,187.330 164.567,187.030 164.488 L 186.485 164.344 187.030 164.652 M218.311 164.694 C 217.766 164.957,217.747 164.987,218.202 164.876 C 218.819 164.725,219.514 164.371,219.183 164.376 C 219.063 164.378,218.670 164.521,218.311 164.694 M188.992 165.413 C 189.172 165.524,189.564 165.680,189.864 165.761 C 190.243 165.862,190.309 165.845,190.082 165.704 C 189.902 165.593,189.510 165.437,189.210 165.357 C 188.831 165.255,188.765 165.272,188.992 165.413 M215.477 165.784 C 214.932 166.047,214.914 166.077,215.368 165.966 C 215.986 165.815,216.680 165.461,216.349 165.466 C 216.229 165.468,215.837 165.611,215.477 165.784 M213.447 166.470 C 212.930 166.653,212.545 166.841,212.592 166.889 C 212.692 166.988,214.714 166.324,214.714 166.192 C 214.714 166.056,214.466 166.110,213.447 166.470 M191.826 166.503 C 192.005 166.614,192.398 166.770,192.698 166.851 C 193.076 166.952,193.143 166.935,192.916 166.794 C 192.736 166.683,192.343 166.527,192.044 166.446 C 191.665 166.345,191.598 166.362,191.826 166.503 M194.659 167.520 C 195.655 167.904,196.046 167.898,195.204 167.513 C 194.845 167.348,194.403 167.216,194.223 167.220 C 194.044 167.224,194.240 167.359,194.659 167.520 M196.730 168.150 C 197.090 168.313,197.629 168.508,197.929 168.581 C 198.367 168.689,198.345 168.656,197.820 168.417 C 197.460 168.253,196.921 168.059,196.621 167.986 C 196.184 167.878,196.205 167.911,196.730 168.150 " stroke="none" fill="#9cb5b1" fill-rule="evenodd"></path></g></svg>